<svg xmlns="http://www.w3.org/2000/svg" xmlns:xlink="http://www.w3.org/1999/xlink" id="Artwork" x="0px" y="0px" viewBox="0 0 654.8 288.6" style="enable-background:new 0 0 654.8 288.6;" xml:space="preserve"> <style type="text/css"> .st0{fill:#0055D9;} .st1{fill:#081477;} </style> <path class="st0" d="M157.4,167.3c-1.3-0.4-1.4-2.2,0.1-2.8c25.8-12.2,24.1-39.9,24.1-39.9c-0.1-28.1-20.7-54.1-53.9-53.9 c-37,0.2-59.2,29.3-59,63.7c0.3,60.2,46.3,83.2,60.6,83.1l-0.1-23.9c0-3.8,0-6.8,2.3-6.8c0,0,14.8,14.8,31.2,14.8 c25.6-0.1,34.3-21.6,34.3-21.6L157.4,167.3z M127.8,148.9c-13.1,0.1-23.7-10.5-23.8-23.6c-0.1-13.1,10.5-23.7,23.6-23.8 c13.1-0.1,23.7,10.5,23.8,23.6C151.4,138.2,140.9,148.8,127.8,148.9"></path> <g> <path class="st1" d="M374,123.9c-2.9-5.4-10.4-11.9-22.7-11.9c-18.9,0-34.2,14.4-34.2,35.6c0,19,12.6,35.8,34.2,35.8 c9.4,0,18.4-3.9,22.7-11.8v9.7h16v-67.2h-16V123.9z M374.1,148.2c-0.2,3.3-1,6.5-2.6,9.4c-3.1,6.1-8.9,10.8-17.9,10.8 c-14.4,0-20.4-12.1-20.4-20.4v-0.1c0-10.4,7.3-20.9,20.3-20.9c9.7,0,15.9,5.5,18.7,11.9C373.6,141.7,374.2,145,374.1,148.2"></path> <path class="st1" d="M442.9,112c-11.1,0-19,5.1-23.8,11.9v-9.8H404v90.7h16v-23.5v-8.9c2.7,4.3,9.8,11,22.9,11 c19.7,0,33.3-16,33.3-35.1C476.3,131.9,466.4,112,442.9,112 M460.2,147.7c0,11-8.2,20.7-20.4,20.7c-5.8,0-10.9-2.3-14.6-6 s-5.9-8.8-5.9-14.6c0-5.9,2.2-11.1,5.8-14.8c3.7-3.8,8.7-6.1,14.6-6.1c13.6,0,20.6,11,20.6,20.7V147.7z"></path> <rect x="486.9" y="114.1" class="st1" width="16" height="67.2"></rect> <path class="st1" d="M569.5,90.7V113v9.8c-2.4-3.9-9.7-10.8-22.5-10.8c-18.2,0-33.8,13.8-33.8,35.6c0,19.6,13.3,35.8,34,35.8 c13.7,0,20.1-6.7,23-11.8v9.7h15.3V90.7H569.5z M564.8,162.2c-3.8,3.8-9.1,6.1-14.9,6.1c-12.4,0-20.6-9.3-20.6-20.7v-0.1 c0-10.5,7.6-20.6,20.7-20.6c5.8,0,10.9,2.2,14.6,5.9c3.7,3.6,6,8.6,6,14.4C570.8,153.1,568.6,158.4,564.8,162.2"></path> <path class="st1" d="M494.9,85.1c-5.5,0-9.9,4.4-9.9,9.9c0,5.5,4.4,9.9,9.9,9.9c5.5,0,9.9-4.4,9.9-9.9 C504.8,89.5,500.3,85.1,494.9,85.1"></path> <path class="st1" d="M310.1,120.5c0-19.6-14.1-29.9-35-29.9h-31.5v90.6h18.2v-31.8h0.7c2.1,0,3.4,1.9,3.4,1.9s12.2,14.1,16.7,19.2 c7.2,8.3,12.6,11.6,21.2,11.6c4.2,0,8.4-1.4,11.3-5L284,148.7C299.4,146.2,310.1,135.8,310.1,120.5 M261.9,104.2h9.8 c12.5,0,20.9,5.3,20.9,16.4c0,11.9-10.8,16.2-20.9,16.2l-9.8,0V104.2z"></path> </g> </svg>